<?xml version="1.0" encoding="iso-8859-1"?>
<!-- Generator: Adobe Illustrator 17.1.0, SVG Export Plug-In . SVG Version: 6.00 Build 0)  -->
<!DOCTYPE svg PUBLIC "-//W3C//DTD SVG 1.1//EN" "http://www.w3.org/Graphics/SVG/1.1/DTD/svg11.dtd">
<svg version="1.1" id="Capa_1" xmlns="http://www.w3.org/2000/svg" xmlns:xlink="http://www.w3.org/1999/xlink" x="0px" y="0px"
	 viewBox="0 0 306.608 306.608" style="enable-background:new 0 0 306.608 306.608;" xml:space="preserve">
<g>
	<path d="M165.497,182.548c-14.314-3.073-27.379-10.198-37.784-20.602c-14.385-14.385-22.307-33.51-22.307-53.853
		s7.922-39.468,22.307-53.853c29.696-29.694,78.012-29.694,107.707,0c21.25,21.251,28.024,53.118,17.255,81.185
		c-1.483,3.867,0.449,8.205,4.316,9.689c3.868,1.481,8.205-0.449,9.689-4.316c12.888-33.591,4.78-71.73-20.654-97.164
		c-17.218-17.218-40.11-26.7-64.459-26.7c-24.35,0-47.242,9.482-64.46,26.7s-26.7,40.11-26.7,64.459
		c0,21.831,7.643,42.476,21.628,58.925l-19.83,19.831l-11.916-11.916c-2.929-2.929-7.678-2.929-10.606,0L9.243,235.372
		c-12.324,12.324-12.324,32.376,0,44.701l0.344,0.344c5.97,5.97,13.908,9.258,22.351,9.258s16.38-3.288,22.35-9.258l34.728-34.728
		c2.929-2.929,2.929-7.678,0-10.606c-2.929-2.929-7.678-2.929-10.606,0L43.681,269.81c-3.137,3.137-7.308,4.864-11.744,4.864
		c-4.437,0-8.607-1.728-11.744-4.864l-0.344-0.344c-6.475-6.476-6.475-17.012,0-23.488l55.136-55.136l29.135,29.135
		c2.929,2.929,7.678,2.929,10.606,0c2.929-2.929,2.929-7.678,0-10.606l-11.916-11.916l19.824-19.824
		c11.426,9.699,25.015,16.427,39.713,19.583c0.531,0.114,1.061,0.168,1.582,0.168c3.459,0,6.57-2.408,7.326-5.927
		C172.125,187.406,169.547,183.418,165.497,182.548z"/>
	<path d="M242.285,154.45c-35.468,0-64.323,28.855-64.323,64.323s28.855,64.323,64.323,64.323s64.323-28.855,64.323-64.323
		S277.753,154.45,242.285,154.45z M242.285,268.096c-27.197,0-49.323-22.126-49.323-49.323s22.126-49.323,49.323-49.323
		s49.323,22.126,49.323,49.323S269.482,268.096,242.285,268.096z"/>
	<path d="M260.515,197.682l-26.273,26.273l-10.187-10.187c-2.929-2.929-7.678-2.929-10.606,0c-2.929,2.929-2.929,7.678,0,10.606
		l15.49,15.49c1.464,1.464,3.384,2.197,5.303,2.197s3.839-0.732,5.303-2.197l31.577-31.577c2.929-2.929,2.929-7.678,0-10.606
		C268.193,194.753,263.444,194.753,260.515,197.682z"/>
</g>
<g>
</g>
<g>
</g>
<g>
</g>
<g>
</g>
<g>
</g>
<g>
</g>
<g>
</g>
<g>
</g>
<g>
</g>
<g>
</g>
<g>
</g>
<g>
</g>
<g>
</g>
<g>
</g>
<g>
</g>
</svg>
